<?xml version="1.0" encoding="utf-8"?>
<!-- Generator: Adobe Illustrator 19.2.1, SVG Export Plug-In . SVG Version: 6.00 Build 0)  -->
<svg version="1.1" id="Layer_1" xmlns="http://www.w3.org/2000/svg" xmlns:xlink="http://www.w3.org/1999/xlink" x="0px" y="0px"
	 viewBox="0 0 200 200" style="enable-background:new 0 0 200 200;" xml:space="preserve">
<style type="text/css">
	.st0{filter:url(#drop-shadow);}
	.st0{fill:#FFFFFF;}
	.st1{fill:#6BC391;}
	.st2{fill:none;stroke:#F3736B;stroke-width:5;stroke-miterlimit:10;}
	.st3{fill:none;stroke:#F3736B;stroke-miterlimit:10;}
</style>
<filter id="drop-shadow" x="-20%" y="-20%" width="140%" height="140%">
  <feGaussianBlur in="SourceAlpha" result="blur-out" stdDeviation="2" />
  <feOffset in="blur-out" result="the-shadow" dx="0" dy="2"/>
  <feColorMatrix in="the-shadow" result="color-out" type="matrix"
    values="0 0 0 0   0
            0 0 0 0   0
            0 0 0 0   0
            0 0 0 .9 0"/>
  <feBlend in="SourceGraphic" in2="color-out" mode="normal"/>
</filter>
<g id="body">
	<g>
		<circle class="st0" cx="100.5" cy="102.2" r="73.7"/>
	</g>
</g>
<g id="tick">
	<line class="st3" x1="16.4" y1="102.2" x2="1.2" y2="102.2"/>
	<line class="st3" x1="19.3" y1="124" x2="4.6" y2="127.9"/>
	<line class="st3" x1="27.7" y1="144.3" x2="14.5" y2="151.9"/>
	<line class="st3" x1="41" y1="161.7" x2="30.3" y2="172.4"/>
	<line class="st3" x1="160" y1="161.7" x2="170.7" y2="172.4"/>
	<line class="st3" x1="173.3" y1="144.2" x2="186.5" y2="151.8"/>
	<line class="st3" x1="181.7" y1="123.9" x2="196.4" y2="127.9"/>
	<line class="st3" x1="184.6" y1="102.2" x2="199.8" y2="102.2"/>
	<line class="st3" x1="181.7" y1="80.4" x2="196.4" y2="76.5"/>
	<line class="st3" x1="173.3" y1="60.1" x2="186.5" y2="52.5"/>
	<line class="st3" x1="159.9" y1="42.7" x2="170.7" y2="32"/>
	<line class="st3" x1="142.5" y1="29.3" x2="150.1" y2="16.2"/>
	<line class="st3" x1="122.2" y1="20.9" x2="126.2" y2="6.3"/>
	<line class="st3" x1="100.5" y1="18.1" x2="100.5" y2="2.9"/>
	<line class="st3" x1="78.7" y1="21" x2="74.8" y2="6.3"/>
	<line class="st3" x1="58.4" y1="29.4" x2="50.8" y2="16.2"/>
	<line class="st3" x1="41" y1="42.7" x2="30.3" y2="32"/>
	<line class="st3" x1="27.6" y1="60.2" x2="14.5" y2="52.6"/>
	<line class="st3" x1="19.2" y1="80.5" x2="4.6" y2="76.5"/>
</g>
</svg>
